<svg width="35" height="35" viewBox="0 0 35 35" fill="none" xmlns="http://www.w3.org/2000/svg">
<rect width="35" height="35" rx="17.5" fill="#47ABF0"/>
<path d="M10.9941 23H9.03223V12.9238H12.0947L13.9268 20.8467L15.7451 12.9238H18.7734V23H16.8115V16.1846C16.8115 15.9886 16.8138 15.7152 16.8184 15.3643C16.8229 15.0088 16.8252 14.7354 16.8252 14.5439L14.918 23H12.874L10.9805 14.5439C10.9805 14.7354 10.9827 15.0088 10.9873 15.3643C10.9919 15.7152 10.9941 15.9886 10.9941 16.1846V23ZM24.96 23H22.9639V16.1641H20.6328V14.8379C21.248 14.8105 21.6787 14.7695 21.9248 14.7148C22.3167 14.6283 22.6357 14.4551 22.8818 14.1953C23.0505 14.0176 23.1781 13.7806 23.2646 13.4844C23.3148 13.3066 23.3398 13.1745 23.3398 13.0879H24.96V23Z" fill="#FAF4F2"/>
</svg>
