<svg width="35" height="35" viewBox="0 0 35 35" fill="none" xmlns="http://www.w3.org/2000/svg">
<rect width="35" height="35" rx="17.5" fill="#13B25A"/>
<path d="M10.9941 23H9.03223V12.9238H12.0947L13.9268 20.8467L15.7451 12.9238H18.7734V23H16.8115V16.1846C16.8115 15.9886 16.8138 15.7152 16.8184 15.3643C16.8229 15.0088 16.8252 14.7354 16.8252 14.5439L14.918 23H12.874L10.9805 14.5439C10.9805 14.7354 10.9827 15.0088 10.9873 15.3643C10.9919 15.7152 10.9941 15.9886 10.9941 16.1846V23ZM26.9834 19.3428V20.8672H25.8623V23H23.9551V20.8672H20.0312V19.165L23.6748 13.1494H25.8623V19.3428H26.9834ZM21.4736 19.3428H23.9551V15.0635L21.4736 19.3428Z" fill="#FAF4F2"/>
</svg>
