<svg width="35" height="35" viewBox="0 0 35 35" fill="none" xmlns="http://www.w3.org/2000/svg">
<rect width="35" height="35" rx="17.5" fill="#F45841"/>
<path d="M10.9941 23H9.03223V12.9238H12.0947L13.9268 20.8467L15.7451 12.9238H18.7734V23H16.8115V16.1846C16.8115 15.9886 16.8138 15.7152 16.8184 15.3643C16.8229 15.0088 16.8252 14.7354 16.8252 14.5439L14.918 23H12.874L10.9805 14.5439C10.9805 14.7354 10.9827 15.0088 10.9873 15.3643C10.9919 15.7152 10.9941 15.9886 10.9941 16.1846V23ZM22.3418 15.0635C22.123 15.3551 22.0182 15.7448 22.0273 16.2324H20.209C20.2272 15.7402 20.3115 15.2731 20.4619 14.8311C20.6214 14.4437 20.8721 14.0859 21.2139 13.7578C21.4691 13.5254 21.7721 13.3477 22.123 13.2246C22.474 13.1016 22.9046 13.04 23.415 13.04C24.363 13.04 25.1263 13.2861 25.7051 13.7783C26.2884 14.266 26.5801 14.9222 26.5801 15.7471C26.5801 16.3304 26.4069 16.8226 26.0605 17.2236C25.8418 17.4743 25.6139 17.6452 25.377 17.7363C25.5547 17.7363 25.8099 17.889 26.1426 18.1943C26.6393 18.6546 26.8877 19.2835 26.8877 20.0811C26.8877 20.9196 26.596 21.6579 26.0127 22.2959C25.4339 22.9294 24.5749 23.2461 23.4355 23.2461C22.0319 23.2461 21.0566 22.7881 20.5098 21.8721C20.2227 21.3844 20.0632 20.7464 20.0312 19.958H21.9453C21.9453 20.3545 22.0091 20.6826 22.1367 20.9424C22.3737 21.4209 22.8044 21.6602 23.4287 21.6602C23.8115 21.6602 24.1442 21.5303 24.4268 21.2705C24.7139 21.0062 24.8574 20.6279 24.8574 20.1357C24.8574 19.484 24.5931 19.0488 24.0645 18.8301C23.7637 18.707 23.2897 18.6455 22.6426 18.6455V17.251C23.276 17.2419 23.7181 17.1803 23.9688 17.0664C24.4017 16.875 24.6182 16.4876 24.6182 15.9043C24.6182 15.526 24.5065 15.2184 24.2832 14.9814C24.0645 14.7445 23.7546 14.626 23.3535 14.626C22.8932 14.626 22.556 14.7718 22.3418 15.0635Z" fill="#FAF4F2"/>
</svg>
